inDegrees=no
num_controls=7
num_derivatives=13
num_iterations=154
num_multipliers=7
num_parameters=0
num_slacks=7
num_states=26
objective=0.516753
objective_accelerations=0.038974
objective_balance=0.002154
objective_effort=0.043128
objective_height=0.420848
objective_ligament=0.011650
solver_duration=2041.999875
status=Solve_Succeeded
success=true
DataType=double
version=3
OpenSimVersion=4.5
endheader
time	/jointset/ground_pelvis/pelvis_tilt/value	/jointset/ground_pelvis/pelvis_tx/value	/jointset/ground_pelvis/pelvis_ty/value	/jointset/hip_l/hip_flexion_l/value	/jointset/hip_l/hip_adduction_l/value	/jointset/hip_l/hip_rotation_l/value	/jointset/back/lumbar_extension/value	/jointset/patellofemoral_l/patellar_flexion_l/value	/jointset/knee_l/knee_flexion_l/value	/jointset/knee_l/knee_adduction_l/value	/jointset/knee_l/knee_rotation_l/value	/jointset/ankle_l/ankle_angle_l/value	/jointset/subtalar_l/subtalar_angle_l/value	/jointset/ground_pelvis/pelvis_tilt/speed	/jointset/ground_pelvis/pelvis_tx/speed	/jointset/ground_pelvis/pelvis_ty/speed	/jointset/hip_l/hip_flexion_l/speed	/jointset/hip_l/hip_adduction_l/speed	/jointset/hip_l/hip_rotation_l/speed	/jointset/back/lumbar_extension/speed	/jointset/patellofemoral_l/patellar_flexion_l/speed	/jointset/knee_l/knee_flexion_l/speed	/jointset/knee_l/knee_adduction_l/speed	/jointset/knee_l/knee_rotation_l/speed	/jointset/ankle_l/ankle_angle_l/speed	/jointset/subtalar_l/subtalar_angle_l/speed	/forceset/tau_hip_flexion_l	/forceset/tau_hip_adduction_l	/forceset/tau_hip_rotation_l	/forceset/tau_knee_flexion_l	/forceset/tau_ankle_angle_l	/forceset/tau_subtalar_angle_l	/forceset/tau_lumbar_extension	lambda_cid13_p0	lambda_cid13_p1	lambda_cid13_p2	lambda_cid13_p3	lambda_cid13_p4	lambda_cid13_p5	lambda_cid14_p0	/jointset/ground_pelvis/pelvis_tilt/accel	/jointset/ground_pelvis/pelvis_tx/accel	/jointset/ground_pelvis/pelvis_ty/accel	/jointset/hip_l/hip_flexion_l/accel	/jointset/hip_l/hip_adduction_l/accel	/jointset/hip_l/hip_rotation_l/accel	/jointset/back/lumbar_extension/accel	/jointset/patellofemoral_l/patellar_flexion_l/accel	/jointset/knee_l/knee_flexion_l/accel	/jointset/knee_l/knee_adduction_l/accel	/jointset/knee_l/knee_rotation_l/accel	/jointset/ankle_l/ankle_angle_l/accel	/jointset/subtalar_l/subtalar_angle_l/accel	gamma_cid13_p0	gamma_cid13_p1	gamma_cid13_p2	gamma_cid13_p3	gamma_cid13_p4	gamma_cid13_p5	gamma_cid14_p0
1.5	-0.01011675489403487	-0.02317716237990857	0.8699957686163519	0.6223489942336385	-0.3125246827916671	-0.1786701369363103	-0.7843530137608973	0.6375051515227197	0.6375051515226292	-0.1084380555562206	-0.1745323934841142	0.07376105063143838	0.006979433937450446	0.3766168182408591	0.2734070756005922	0.3377710729039122	-1.839892433010455	0.09427649919920193	-0.5333659562393434	0.8407268374115772	-1.633382698291841	-1.633382698291864	-0.1261687642550663	6.488313222460458e-06	-0.2586510935950861	0.01854161908631631	-0.2019226404681103	0.01409931643134588	-0.003864517265906337	-0.1908720654417705	0.0925374239189819	0.04717184243876806	0.2790572750815069	-12.83989690983405	-20.5008642373184	5.39818866655206	-8.184106137261612	-673.601623575439	-82.16492383984696	-19.98446221809517	-0.0233067666197791	0.6153863469997265	-0.4931461943422161	-0.6172226978063002	0.3151774551194834	-0.2181241837567678	1.73713607122964	-0.6457633091120133	-0.6457633091120144	-0.3001945126319614	0.03550473422319619	0.01654291271137474	0.3308301839846273	1.602684658127533e-09	1.025568192670377e-06	1.412514875860142e-07	1.577086263839263e-07	8.127447519924207e-08	1.598172005196789e-07	9.95001651003171e-08
1.51	-0.006352189860801552	-0.02041259453134186	0.8733481724116151	0.6039212467095921	-0.3115666115831473	-0.1840158559509308	-0.7758601007574654	0.6211411345498832	0.6211411345498359	-0.1097146390986801	-0.1745323508589081	0.07117571535162412	0.007181009448522728	0.3762446744463996	0.2794758638343969	0.33264576773232	-1.845423071410407	0.0973297430135894	-0.5357250225562756	0.8577399079783219	-1.639199730312136	-1.639199730312154	-0.1291419339583363	9.119217129050883e-07	-0.2583643294064272	0.02177970962520226	-0.1944906505842182	0.01325952602024914	-0.003837716186911278	-0.1883491196104738	0.09240808487010341	0.04621982069701652	0.2721292988053913	-12.69676995285398	-20.15410051277308	5.390466619591076	-8.010330933323884	-669.9219537238802	-82.03522537553044	-20.45447380451099	-0.05190545107260806	0.5980639328374353	-0.5317951655654319	-0.4858967476700262	0.2990246695048469	-0.2367948374323052	1.666014254902738	-0.5165474047042249	-0.5165474047034564	-0.2947796191924391	-0.01874374520397826	0.04251608064266073	0.3210405887339674	-7.521264103591413e-09	1.056724125079759e-06	1.750442721598105e-07	1.638837538211048e-07	7.80423374920969e-08	1.594975786813337e-07	9.702740076579761e-08
1.52	-0.002592893718556067	-0.01758825102618378	0.8766474086577628	0.5854452103342299	-0.3105782825715021	-0.1893835650250752	-0.767200532707265	0.6047255724056003	0.6047255724055967	-0.1110207346221758	-0.1745323949814898	0.06859480229543631	0.007415114284962549	0.375563040043399	0.2853622069188629	0.327137563080819	-1.849550203273573	0.1003280598242357	-0.5377639681440415	0.8740578467653021	-1.643691732581069	-1.643691732581082	-0.132071160462323	-1.086124443450702e-05	-0.2577666488697878	0.02504748415982376	-0.1870586607003257	0.01241973560915169	-0.003810915107914552	-0.1858261737791774	0.09227874582122458	0.04526779895526406	0.2652013225292765	-12.55936014437822	-19.8064649165613	5.382753057636724	-7.840018188908633	-666.3400856382378	-81.92361842064794	-20.90075287514613	-0.0852048883280191	0.5788973171320249	-0.5697260903239731	-0.3365213904489734	0.3041920543712442	-0.1541000379234642	1.598109715276743	-0.3807573588395873	-0.3807573588395854	-0.2914058727752854	0.03426537929562543	0.07872618230748422	0.3367669831317412	-6.911923321575329e-09	1.05767922857942e-06	1.583205310564497e-07	1.610877486586345e-07	8.300728601940729e-08	1.648175733204936e-07	9.809708825697418e-08
1.53	0.001158034247727432	-0.01470600714112083	0.8798897064422176	0.5669349117517859	-0.3095603057664222	-0.1947698227854289	-0.7583813861751335	0.5882717061659627	0.5882717061659544	-0.1123561235124201	-0.1745324127698388	0.06602140147936617	0.007681973656932788	0.3745699964344237	0.2910504646312408	0.3212636614863155	-1.852271189743847	0.1032555963509259	-0.5394351631499094	0.8896427673781773	-1.64685600695605	-1.646856006956051	-0.1349987767540451	4.4923834492069e-06	-0.256861442063117	0.02832712061481573	-0.179516895948833	0.01146338966164335	-0.003841147843696644	-0.183451686853747	0.09228932116585142	0.04426563129085677	0.2581871771080954	-12.38762407715984	-19.44054246611913	5.369247009377138	-7.657524724823504	-662.8763567214068	-81.80116379199244	-21.32048959243723	-0.1142454135977421	0.5584026109976602	-0.6049512421313316	-0.2041478474624155	0.2851308214442932	-0.1656775633493514	1.51937939184776	-0.2504573219257992	-0.2504573219241072	-0.2920849928059778	-0.01526400671304453	0.1042544022947227	0.3238062270682454	4.039037600659112e-09	1.026545951362501e-06	8.792298142110998e-08	1.487599151090371e-07	9.668163867082658e-08	1.761296604670028e-07	1.029306308129527e-07
1.54	0.004897453514637553	-0.01176795815639271	0.8830715194011038	0.5484045511902097	-0.3085134343221499	-0.2001712021621277	-0.7494102512053624	0.5717929582135552	0.571792958213543	-0.1137205176626688	-0.1745323638941605	0.06345862002585227	0.007981678243530013	0.3732613001688315	0.2965232268518951	0.3150405979670998	-1.853562599099955	0.1061069876626715	-0.5407882914130134	0.904455534293248	-1.64866807513497	-1.648668075134961	-0.1378722124631797	2.471561421353103e-06	-0.2556427763585324	0.03161652708522057	-0.1719751311973399	0.01050704371413474	-0.003871380579476602	-0.1810771999283168	0.09229989651047811	0.04326346362644906	0.2511730316869148	-12.22180813708134	-19.07322588087792	5.355110386041403	-7.477706017080238	-659.5131321179282	-81.69904486000094	-21.71094271192604	-0.1483354196514405	0.5357982187873228	-0.6395584752664213	-0.05060596761590028	0.288963011382334	-0.09048668937068971	1.443678975715856	-0.1103161196275506	-0.1103161196275506	-0.2805697562577866	0.03079048931330767	0.1414179618902638	0.3387209862143192	7.455147210639928e-09	1.003024893407315e-06	5.475076191477323e-08	1.410241304825978e-07	1.035390455196071e-07	1.803088218409164e-07	1.034874280553567e-07
